<?xml version="1.0" encoding="utf-8"?>
<!-- Generator: Adobe Illustrator 16.0.4, SVG Export Plug-In . SVG Version: 6.00 Build 0)  -->
<!DOCTYPE svg PUBLIC "-//W3C//DTD SVG 1.1//EN" "http://www.w3.org/Graphics/SVG/1.1/DTD/svg11.dtd">
<svg version="1.1" id="Layer_1" xmlns="http://www.w3.org/2000/svg" xmlns:xlink="http://www.w3.org/1999/xlink" x="0px" y="0px"
	 width="82px" height="82px" viewBox="-16 -16 82 82" enable-background="new -16 -16 82 82" xml:space="preserve">
<g>
	<g>
		<path fill="#BF902C" d="M25.084,65.085c-22.055,0-40-17.943-40-40c0-22.057,17.944-40.001,40-40.001c22.06,0,40,17.945,40,40.001
			C65.084,47.142,47.144,65.085,25.084,65.085z M25.084-11.955c-20.422,0-37.038,16.618-37.038,37.04S4.662,62.124,25.084,62.124
			c20.422,0,37.041-16.616,37.041-37.039S45.506-11.955,25.084-11.955z"/>
	</g>
	<g>
		<path fill="#BF902C" d="M39.028,36.952l-39.26-1.802L-2.245,23.83L33.974,8.587L39.028,36.952z M2.272,32.3l33.19,1.524
			L31.71,12.759L1.085,25.644L2.272,32.3z"/>
	</g>
	<g>
		<path fill="#BF902C" d="M15.12,42.174c-0.137,0-0.281-0.003-0.422-0.015c-1.75-0.107-3.354-0.897-4.511-2.212
			c-1.161-1.319-1.737-3.009-1.626-4.759c0.052-0.816,0.764-1.438,1.573-1.384c0.82,0.053,1.438,0.759,1.386,1.575
			c-0.063,0.957,0.254,1.885,0.888,2.612c0.64,0.72,1.519,1.15,2.477,1.214c1.98,0.118,3.703-1.38,3.831-3.368
			c0.052-0.816,0.735-1.438,1.574-1.381c0.816,0.053,1.438,0.756,1.386,1.574C21.448,39.503,18.552,42.174,15.12,42.174z"/>
	</g>
	<g>
		
			<rect x="-8.003" y="27.749" transform="matrix(-0.1753 -0.9845 0.9845 -0.1753 -28.5196 34.5701)" fill="#BF902C" width="16.444" height="2.963"/>
	</g>
	<g>
		
			<rect x="18.86" y="21.547" transform="matrix(-0.1753 -0.9845 0.9845 -0.1753 18.5171 61.5677)" fill="#BF902C" width="32.369" height="2.963"/>
	</g>
	<g>
		<path fill="none" stroke="#BF902C" stroke-width="2.3105" stroke-linecap="round" stroke-miterlimit="10" d="M59.404,14.282"/>
	</g>
	<g>
		<path fill="none" stroke="#BF902C" stroke-width="2.3105" stroke-linecap="round" stroke-miterlimit="10" d="M39.421,14.522"/>
	</g>
	<g>
		<path fill="none" stroke="#FFFFFF" stroke-width="2.3105" stroke-linecap="round" stroke-miterlimit="10" d="M54.404,29.848"/>
	</g>
	<g>
		<path fill="none" stroke="#BF902C" stroke-width="2.3105" stroke-linecap="round" stroke-miterlimit="10" d="M41.783,27.818"/>
	</g>
	<g>
		<path fill="#FFFFFF" d="M40.82,23.528c-0.529,0-1.004-0.368-1.115-0.904c-0.133-0.616,0.264-1.223,0.879-1.352l8.75-1.848
			c0.613-0.134,1.219,0.264,1.353,0.882c0.126,0.615-0.265,1.223-0.884,1.352l-8.748,1.848
			C40.977,23.521,40.896,23.528,40.82,23.528z"/>
	</g>
	<g>
		<path fill="#FFFFFF" d="M39.854,18.1c-0.37,0-0.733-0.182-0.956-0.513c-0.341-0.526-0.197-1.236,0.328-1.583l7.435-4.897
			c0.525-0.348,1.231-0.203,1.579,0.325c0.345,0.529,0.204,1.234-0.324,1.582l-7.434,4.896C40.288,18.038,40.07,18.1,39.854,18.1z"
			/>
	</g>
	<g>
		<path fill="#FFFFFF" d="M50.404,30.705c-0.083,0-0.171-0.01-0.261-0.026l-8.668-2.033c-0.61-0.141-0.993-0.758-0.85-1.369
			c0.143-0.615,0.753-0.994,1.368-0.85l8.672,2.027c0.615,0.146,0.993,0.759,0.85,1.373C51.392,30.352,50.924,30.705,50.404,30.705z
			"/>
	</g>
	<g>
		<path fill="none" stroke="#FFFFFF" stroke-width="2.3105" stroke-linecap="round" stroke-miterlimit="10" d="M46.646,47.638"/>
	</g>
</g>
</svg>
