<?xml version="1.0" encoding="utf-8"?>
<!-- Generator: Adobe Illustrator 16.0.4, SVG Export Plug-In . SVG Version: 6.00 Build 0)  -->
<!DOCTYPE svg PUBLIC "-//W3C//DTD SVG 1.1//EN" "http://www.w3.org/Graphics/SVG/1.1/DTD/svg11.dtd">
<svg version="1.1" id="Layer_1" xmlns="http://www.w3.org/2000/svg" xmlns:xlink="http://www.w3.org/1999/xlink" x="0px" y="0px"
	 width="50px" height="50px" viewBox="0 0 50 50" enable-background="new 0 0 50 50" xml:space="preserve">
<path fill="none" stroke="#FFFFFF" stroke-width="2" stroke-linecap="round" stroke-miterlimit="10" d="M10.392,4.506
	C5.01,8.801,1.553,15.405,1.553,22.826c0,7.36,3.398,13.922,8.706,18.22"/>
<path fill="none" stroke="#FFFFFF" stroke-width="2" stroke-linecap="round" stroke-miterlimit="10" d="M39.78,41.019
	c5.285-4.3,8.666-10.849,8.666-18.193c0-7.402-3.438-13.992-8.797-18.289"/>
<path fill="none" stroke="#FFFFFF" stroke-width="2" stroke-linecap="round" stroke-miterlimit="10" d="M17.864,10.531
	c-4.235,2.464-7.091,7.041-7.091,12.294c0,5.193,2.791,9.721,6.946,12.207"/>
<path fill="none" stroke="#FFFFFF" stroke-width="2" stroke-linecap="round" stroke-miterlimit="10" d="M32.405,34.956
	c4.087-2.499,6.822-6.989,6.822-12.13c0-5.201-2.801-9.737-6.966-12.218"/>
<path fill="none" stroke="#BF902C" stroke-width="3" stroke-miterlimit="10" d="M25,22.826"/>
<path fill="#231F20" d="M19.024,46h12.459L27,39.941V28.149c2-0.882,3.57-2.933,3.57-5.324c0-3.195-2.564-5.785-5.76-5.785
	c-3.193,0-5.723,2.59-5.723,5.785c0,2.512,1.912,4.63,3.912,5.428v12.367L19.024,46z"/>
</svg>
