<?xml version="1.0" encoding="utf-8"?>
<!-- Generator: Adobe Illustrator 16.0.4, SVG Export Plug-In . SVG Version: 6.00 Build 0)  -->
<!DOCTYPE svg PUBLIC "-//W3C//DTD SVG 1.1//EN" "http://www.w3.org/Graphics/SVG/1.1/DTD/svg11.dtd">
<svg version="1.1" id="Layer_1" xmlns="http://www.w3.org/2000/svg" xmlns:xlink="http://www.w3.org/1999/xlink" x="0px" y="0px"
	 width="27.333px" height="22px" viewBox="378.417 442.834 27.333 22" enable-background="new 378.417 442.834 27.333 22"
	 xml:space="preserve">
<g id="Layer_2">
</g>
<g id="Layer_1_1_">
	<path fill="none" d="M397.78,453.049c0-2.24-1.283-4.182-3.15-5.141L392.084,450l-2.64-2.128c-1.907,0.945-3.226,2.907-3.226,5.177
		c0,2.239,1.282,4.183,3.149,5.142l1.631-1.315v-1.238c-1.066-0.38-1.835-1.39-1.835-2.587c0-1.521,1.234-2.757,2.757-2.757
		c1.523,0,2.756,1.234,2.756,2.757c0,1.141-0.69,2.117-1.678,2.537v1.167l1.705,1.4C396.532,457.182,397.78,455.259,397.78,453.049z
		"/>
	<path fill="none" d="M402.174,453.049c0-3.283-1.568-6.199-3.99-8.061l-1.907,1.566c2.108,1.395,3.505,3.782,3.505,6.493
		c0,2.684-1.365,5.052-3.438,6.451l1.902,1.562C400.632,459.199,402.174,456.304,402.174,453.049z"/>
	<path fill="none" d="M384.22,453.049c0-2.731,1.419-5.136,3.556-6.522l-1.931-1.559c-2.437,1.86-4.019,4.786-4.019,8.081
		c0,3.269,1.554,6.172,3.955,8.034l1.925-1.553C385.607,458.136,384.22,455.752,384.22,453.049z"/>
	<path fill="#FFFFFF" d="M381.826,453.049c0-3.295,1.582-6.221,4.019-8.081l-1.603-1.292c-2.695,2.235-4.416,5.606-4.416,9.373
		c0,3.739,1.697,7.087,4.357,9.321l1.598-1.287C383.38,459.221,381.826,456.316,381.826,453.049z"/>
	<path fill="#FFFFFF" d="M402.174,453.049c0,3.255-1.542,6.15-3.928,8.015l1.58,1.298c2.654-2.234,4.348-5.577,4.348-9.312
		c0-3.761-1.716-7.128-4.405-9.363l-1.585,1.304C400.604,446.85,402.174,449.766,402.174,453.049z"/>
	<path fill="#FFFFFF" d="M399.78,453.049c0-2.711-1.396-5.1-3.505-6.493l-1.646,1.354c1.867,0.959,3.15,2.899,3.15,5.141
		c0,2.21-1.248,4.133-3.075,5.104l1.639,1.347C398.415,458.101,399.78,455.731,399.78,453.049z"/>
	<path fill="#FFFFFF" d="M386.22,453.049c0-2.27,1.317-4.23,3.226-5.177l-1.67-1.347c-2.137,1.388-3.556,3.791-3.556,6.522
		c0,2.703,1.389,5.087,3.486,6.481l1.663-1.341C387.502,457.23,386.22,455.288,386.22,453.049z"/>
	<path fill="#231F20" d="M391,461.53l-1.848,2.47h5.938l-2.09-2.794v-4.453v-1.167c0.986-0.42,1.678-1.396,1.678-2.537
		c0-1.521-1.232-2.757-2.756-2.757c-1.522,0-2.757,1.234-2.757,2.757c0,1.197,0.769,2.207,1.835,2.587v1.238V461.53z"/>
	<g>
		<path fill="none" stroke="#231F20" stroke-width="2" stroke-miterlimit="10" d="M338.046,453.954"/>
	</g>
	<g>
		<path fill="none" stroke="#231F20" stroke-width="2" stroke-miterlimit="10" d="M319,454"/>
	</g>
	<g>
		<path fill="#231F20" d="M336.587,448h-2c0-1-1.094-2.438-2.438-2.438C330.805,445.562,330,447,330,448h-2.287
			c0-2,1.99-4.438,4.438-4.438C334.597,443.562,336.587,446,336.587,448z"/>
	</g>
	<g>
		<path fill="none" stroke="#231F20" stroke-width="2" stroke-miterlimit="10" d="M331.149,449.484"/>
	</g>
	<g>
		<path fill="#9E7929" d="M339,453"/>
	</g>
	<g>
		<polygon fill="none" points="340.584,448 340,448 340,449.029 		"/>
		<rect x="321" y="456" fill="none" width="16" height="6"/>
		<polygon fill="none" points="324.479,450 321.259,454 337,454 337.145,453.461 339.23,450 		"/>
		<polygon fill="none" points="339,454.271 339,462 343,462 343,454.274 341.022,450.938 		"/>
	</g>
	<path fill="#231F20" d="M342,448L342,448h-0.333h-1.083H340h-17l-4,5v1l0,0v10h20h6v-10L342,448z M340,449h0.017L340,449.029V449z
		 M337,462h-16v-6h16V462z M337,454h-16l3-4h15L337,454z M343,462h-4v-8l2.022-4l1.978,4V462z"/>
	<g>
		<rect x="440" y="450" fill="#FFFFFF" width="4" height="1"/>
	</g>
	<g>
		<rect x="440" y="448" fill="#FFFFFF" width="4" height="1"/>
	</g>
	<g>
		<rect x="456" y="450" fill="#FFFFFF" width="4" height="1"/>
	</g>
	<g>
		<rect x="456" y="448" fill="#FFFFFF" width="4" height="1"/>
	</g>
	<g>
		<rect x="448" y="450" fill="#FFFFFF" width="4" height="1"/>
	</g>
	<g>
		<rect x="448" y="448" fill="#FFFFFF" width="4" height="1"/>
	</g>
	<path fill="#231F20" d="M437,444v20h26v-20H437z M439,446h6v7h-1v3h1v6h-6V446z M447,462v-16h6v7h-1v3h1v6H447z M455,462v-16h6v7
		h-1v3h1v6H455z"/>
	<line fill="none" stroke="#231F20" stroke-width="2" stroke-miterlimit="10" x1="462" y1="454" x2="462" y2="457"/>
	<g>
		<rect x="328" y="452.129" fill="#FFFFFF" width="2" height="5.871"/>
	</g>
</g>
</svg>
