<?xml version="1.0" encoding="utf-8"?>
<!-- Generator: Adobe Illustrator 16.0.4, SVG Export Plug-In . SVG Version: 6.00 Build 0)  -->
<!DOCTYPE svg PUBLIC "-//W3C//DTD SVG 1.1//EN" "http://www.w3.org/Graphics/SVG/1.1/DTD/svg11.dtd">
<svg version="1.1" id="Layer_1" xmlns="http://www.w3.org/2000/svg" xmlns:xlink="http://www.w3.org/1999/xlink" x="0px" y="0px"
	 width="82.375px" height="82.375px" viewBox="0 0 82.375 82.375" enable-background="new 0 0 82.375 82.375" xml:space="preserve">
<g>
	<path fill="#FFFFFF" d="M42.688,46.688h-11V40c0-0.552,0.448-1,1-1s1,0.448,1,1v4.688h7V40c0-0.552,0.448-1,1-1
		c0.553,0,1,0.448,1,1V46.688z"/>
</g>
<g>
	<path fill="#BD8F2D" d="M41,81.5C18.668,81.5,0.5,63.331,0.5,41S18.668,0.5,41,0.5c22.332,0,40.5,18.169,40.5,40.5
		S63.332,81.5,41,81.5z M41,3.5C20.322,3.5,3.5,20.322,3.5,41S20.322,78.5,41,78.5S78.5,61.678,78.5,41S61.678,3.5,41,3.5z"/>
</g>
<g>
	<path fill="none" stroke="#BD8F2D" stroke-width="3" stroke-miterlimit="10" d="M40.833,31"/>
</g>
<path fill="#BD8F2D" d="M59.996,26.924l0.129-0.236H47.688v-7h-18V27l-7.97,0.017c-7.723,1.164-7.03,12.486-7.03,13.537V58.5
	c0,0.828,0.984,1.188,1.812,1.188h40c0.41,0,0.623-0.009,0.895-0.274l8.293-3.767V39.381C65.688,29.38,60.843,27.195,59.996,26.924z
	 M32.688,22.688h12v4h-12V22.688z M54.688,56.688h-37v-16h37V56.688z M55.031,37.688H18.009c0.166-3,0.971-7,4.366-8h7.312v2h3v-2
	h12v2h3v-2h9.078C56.071,31.688,55.303,34.688,55.031,37.688z M62.688,53.877l-5,2.768V39.5c0-0.118,0.139-0.232,0.113-0.343
	c0.191-4.1,1.125-7.161,1.855-8.888c1.047,0.719,3.031,2.921,3.031,9.111V53.877z"/>
</svg>
