<?xml version="1.0" encoding="utf-8"?>
<!-- Generator: Adobe Illustrator 16.0.4, SVG Export Plug-In . SVG Version: 6.00 Build 0)  -->
<!DOCTYPE svg PUBLIC "-//W3C//DTD SVG 1.1//EN" "http://www.w3.org/Graphics/SVG/1.1/DTD/svg11.dtd">
<svg version="1.1" id="Layer_1" xmlns="http://www.w3.org/2000/svg" xmlns:xlink="http://www.w3.org/1999/xlink" x="0px" y="0px"
	 width="50px" height="50px" viewBox="0 0 50 50" enable-background="new 0 0 50 50" xml:space="preserve">
<g>
	<g>
		<path fill="#BF902C" d="M25.084,49.585c-13.509,0-24.5-10.99-24.5-24.5c0-13.51,10.991-24.501,24.5-24.501
			c13.511,0,24.5,10.991,24.5,24.501C49.584,38.595,38.595,49.585,25.084,49.585z M25.084,2.398
			c-12.509,0-22.686,10.178-22.686,22.687c0,12.509,10.177,22.687,22.686,22.687s22.687-10.178,22.687-22.687
			C47.771,12.576,37.593,2.398,25.084,2.398z"/>
	</g>
	<g>
		<path fill="#BF902C" d="M33.625,32.354L9.578,31.25l-1.233-6.934l22.185-9.336L33.625,32.354z M11.112,29.504l20.33,0.933
			l-2.299-12.902l-18.758,7.892L11.112,29.504z"/>
	</g>
	<g>
		<path fill="#BF902C" d="M18.981,35.552c-0.084,0-0.172-0.002-0.259-0.009c-1.072-0.067-2.054-0.55-2.763-1.356
			c-0.711-0.807-1.064-1.842-0.996-2.913c0.032-0.501,0.468-0.881,0.964-0.848c0.502,0.032,0.88,0.464,0.849,0.965
			c-0.039,0.586,0.155,1.154,0.544,1.599c0.392,0.442,0.93,0.706,1.517,0.744c1.213,0.073,2.268-0.846,2.346-2.063
			c0.032-0.5,0.451-0.88,0.964-0.846c0.5,0.032,0.881,0.463,0.849,0.964C22.857,33.916,21.083,35.552,18.981,35.552z"/>
	</g>
	<g>
		
			<rect x="4.818" y="26.717" transform="matrix(0.1753 0.9845 -0.9845 0.1753 35.3231 13.0799)" fill="#BF902C" width="10.072" height="1.815"/>
	</g>
	<g>
		
			<rect x="21.272" y="22.918" transform="matrix(0.1753 0.9845 -0.9845 0.1753 49.1747 -11.0534)" fill="#BF902C" width="19.827" height="1.815"/>
	</g>
	<g>
		<path fill="none" stroke="#BF902C" stroke-width="2.3105" stroke-linecap="round" stroke-miterlimit="10" d="M46.105,18.468"/>
	</g>
	<g>
		<path fill="none" stroke="#BF902C" stroke-width="2.3105" stroke-linecap="round" stroke-miterlimit="10" d="M33.865,18.615"/>
	</g>
	<g>
		<path fill="none" stroke="#FFFFFF" stroke-width="2.3105" stroke-linecap="round" stroke-miterlimit="10" d="M43.043,28.002"/>
	</g>
	<g>
		<path fill="none" stroke="#BF902C" stroke-width="2.3105" stroke-linecap="round" stroke-miterlimit="10" d="M35.313,26.759"/>
	</g>
	<g>
		<path fill="#FFFFFF" d="M34.723,24.131c-0.324,0-0.615-0.226-0.684-0.554c-0.081-0.377,0.162-0.749,0.539-0.828l5.359-1.132
			c0.375-0.082,0.747,0.162,0.828,0.54c0.078,0.377-0.162,0.749-0.541,0.829l-5.358,1.131C34.818,24.127,34.77,24.131,34.723,24.131
			z"/>
	</g>
	<g>
		<path fill="#FFFFFF" d="M34.131,20.806c-0.227,0-0.45-0.111-0.585-0.314c-0.209-0.322-0.121-0.757,0.2-0.969l4.554-3
			c0.322-0.213,0.755-0.124,0.968,0.199c0.211,0.324,0.124,0.756-0.2,0.969l-4.552,2.999C34.396,20.768,34.264,20.806,34.131,20.806
			z"/>
	</g>
	<g>
		<path fill="#FFFFFF" d="M40.593,28.528c-0.051,0-0.105-0.006-0.159-0.017l-5.31-1.245c-0.374-0.087-0.608-0.464-0.521-0.839
			c0.089-0.377,0.462-0.609,0.839-0.521l5.311,1.243c0.377,0.089,0.608,0.464,0.521,0.84C41.197,28.311,40.911,28.528,40.593,28.528
			z"/>
	</g>
	<g>
		<path fill="none" stroke="#FFFFFF" stroke-width="2.3105" stroke-linecap="round" stroke-miterlimit="10" d="M38.291,38.898"/>
	</g>
</g>
</svg>
