<?xml version="1.0" encoding="utf-8"?>
<!-- Generator: Adobe Illustrator 16.0.4, SVG Export Plug-In . SVG Version: 6.00 Build 0)  -->
<!DOCTYPE svg PUBLIC "-//W3C//DTD SVG 1.1//EN" "http://www.w3.org/Graphics/SVG/1.1/DTD/svg11.dtd">
<svg version="1.1" id="Layer_1" xmlns="http://www.w3.org/2000/svg" xmlns:xlink="http://www.w3.org/1999/xlink" x="0px" y="0px"
	 width="82.375px" height="82.375px" viewBox="0 0 82.375 82.375" enable-background="new 0 0 82.375 82.375" xml:space="preserve">
<path fill="none" d="M19.563,70.063l5.468-9.555c-5.631-4.587-9.236-11.571-9.236-19.384c0-9.126,4.919-17.122,12.242-21.485
	L22.78,9.866l3.412-3.131C12.926,12.519,3.625,25.753,3.625,41.125c0,13.945,7.657,26.128,18.981,32.589l0.295-0.502L19.563,70.063z
	"/>
<path fill="none" d="M18.121,41.125c0,6.948,3.145,13.174,8.083,17.335l3.25-5.68c-3.041-2.959-4.939-7.087-4.939-11.655
	c0-5.811,3.07-10.905,7.664-13.785l-3.04-5.652C22.543,25.656,18.121,32.883,18.121,41.125z"/>
<path fill="none" d="M46.292,41.125c0,0.068-0.008,0.135-0.011,0.203l4.844,9.137c2.239-2.476,3.617-5.746,3.617-9.34
	c0-4.837-2.476-9.104-6.225-11.607l-4.184,7.406C45.529,37.934,46.292,39.441,46.292,41.125z"/>
<path fill="none" d="M57.068,41.125c0,4.495-1.833,8.57-4.789,11.519l3.089,5.827c4.944-4.162,8.094-10.392,8.094-17.346
	c0-8.088-4.26-15.195-10.65-19.209l-3.151,5.579C54.113,30.402,57.068,35.422,57.068,41.125z"/>
<path fill="none" d="M26.841,41.125c0,3.699,1.457,7.058,3.814,9.557l4.775-8.345c-0.088-0.391-0.139-0.795-0.139-1.212
	c0-1.711,0.786-3.241,2.016-4.251l-4.027-7.486C29.414,31.87,26.841,36.198,26.841,41.125z"/>
<path fill="none" d="M78.625,41.125c0-15.496-9.448-28.826-22.886-34.534l3.736,3.528l-5.52,9.771
	c7.096,4.415,11.831,12.281,11.831,21.235c0,7.846-3.637,14.854-9.309,19.44l4.944,9.328l-3.32,3.053l0.696,1.241
	C70.588,67.86,78.625,55.415,78.625,41.125z"/>
<path fill="none" d="M54.706,76.069c0.467-0.183,0.931-0.371,1.388-0.571l-0.261-0.465L54.706,76.069z"/>
<path fill="#FFFFFF" d="M24.515,41.125c0,4.568,1.898,8.696,4.939,11.655l1.201-2.099c-2.357-2.499-3.814-5.857-3.814-9.557
	c0-4.927,2.573-9.255,6.439-11.737l-1.102-2.048C27.585,30.22,24.515,35.314,24.515,41.125z"/>
<path fill="#FFFFFF" d="M54.742,41.125c0,3.594-1.378,6.864-3.617,9.34l1.154,2.179c2.956-2.948,4.789-7.023,4.789-11.519
	c0-5.703-2.955-10.723-7.408-13.63l-1.143,2.022C52.267,32.021,54.742,36.288,54.742,41.125z"/>
<path fill="#FFFFFF" d="M63.462,41.125c0,6.954-3.149,13.184-8.094,17.346l1.11,2.095c5.672-4.586,9.309-11.595,9.309-19.44
	c0-8.954-4.735-16.82-11.831-21.235l-1.145,2.026C59.202,25.93,63.462,33.037,63.462,41.125z"/>
<path fill="#FFFFFF" d="M18.121,41.125c0-8.242,4.422-15.469,11.018-19.438l-1.102-2.048c-7.323,4.363-12.242,12.359-12.242,21.485
	c0,7.812,3.605,14.797,9.236,19.384l1.173-2.049C21.266,54.299,18.121,48.073,18.121,41.125z"/>
<path fill="#BD8F2D" d="M50.626,1.762c-3.05-0.736-6.229-1.137-9.501-1.137c-3.278,0-6.464,0.401-9.519,1.141
	C13.854,6.06,0.625,22.072,0.625,41.125c0,18.557,12.55,34.228,29.604,38.999c3.469,0.971,7.12,1.501,10.896,1.501
	c2.927,0,5.778-0.319,8.531-0.912c18.248-3.929,31.969-20.183,31.969-39.588C81.625,22.065,68.388,6.049,50.626,1.762z
	 M40.928,48.47l4.946,8.816l-4.87,2.553l-4.977-3.034L40.928,48.47z M38.292,41.125c0-0.559,0.19-1.07,0.502-1.487
	c0.456-0.611,1.179-1.013,1.998-1.013c0.823,0,1.549,0.405,2.005,1.021c0.308,0.416,0.495,0.924,0.495,1.479
	c0,1.378-1.121,2.5-2.5,2.5S38.292,42.503,38.292,41.125z M43.991,61.66l3.352-1.757l3.242,5.777L43.991,61.66z M50.158,68.934
	l-9.054,3.226l-9.729-3.886l9.518-4.989L50.158,68.934z M34.507,59.392l3.398,2.071l-6.673,3.499L34.507,59.392z M28.144,70.215
	l8.685,3.467l-8.018,2.856c-1.208-0.422-2.39-0.901-3.538-1.439L28.144,70.215z M41.125,78.625c-2.479,0-4.898-0.248-7.244-0.709
	l7.162-2.551l6.679,2.667C45.578,78.414,43.376,78.625,41.125,78.625z M54.706,76.069c-0.66,0.258-1.329,0.499-2.008,0.72
	l-7.379-2.947l8.205-2.923l2.309,4.114l0.261,0.465C55.637,75.698,55.173,75.887,54.706,76.069z M58.799,74.188l-0.696-1.241
	L43.056,46.132c1.847-0.839,3.147-2.666,3.226-4.804c0.003-0.068,0.011-0.135,0.011-0.203c0-1.684-0.763-3.191-1.958-4.201
	c-0.958-0.809-2.193-1.299-3.542-1.299c-1.321,0-2.535,0.469-3.484,1.249c-1.229,1.01-2.016,2.54-2.016,4.251
	c0,0.417,0.051,0.821,0.139,1.212c0.402,1.779,1.668,3.231,3.332,3.896L22.901,73.212l-0.295,0.502
	C11.282,67.253,3.625,55.07,3.625,41.125c0-15.372,9.301-28.606,22.567-34.39c4.578-1.996,9.627-3.11,14.933-3.11
	c5.182,0,10.121,1.057,14.614,2.966c13.438,5.708,22.886,19.038,22.886,34.534C78.625,55.415,70.588,67.86,58.799,74.188z"/>
</svg>
