<?xml version="1.0" encoding="utf-8"?>
<!-- Generator: Adobe Illustrator 16.0.4, SVG Export Plug-In . SVG Version: 6.00 Build 0)  -->
<!DOCTYPE svg PUBLIC "-//W3C//DTD SVG 1.1//EN" "http://www.w3.org/Graphics/SVG/1.1/DTD/svg11.dtd">
<svg version="1.1" id="Layer_1" xmlns="http://www.w3.org/2000/svg" xmlns:xlink="http://www.w3.org/1999/xlink" x="0px" y="0px"
	 width="82.375px" height="82.375px" viewBox="0 0 82.375 82.375" enable-background="new 0 0 82.375 82.375" xml:space="preserve">
<polygon fill="#FFFFFF" points="69.688,40.688 69.688,43.688 78.68,43.688 78.688,43.688 78.688,40.688 78.811,40.688 "/>
<path fill="none" d="M19.688,27.688v28h2v6h-2v10.145c6,3.966,13,6.378,20,6.635V27.688H19.688z M33.688,43.688h-9v-3h9V43.688z
	 M24.688,37.688v-3h9v3H24.688z"/>
<path fill="none" d="M42.688,43.688v34.77c4-0.171,8-0.923,11-2.172V43.688H42.688z"/>
<path fill="none" d="M53.688,18.111l10.109,6.576h11.42c-6.015-12-18.949-21.5-33.906-21.5s-27.892,9.5-33.907,21.5h46.284V18.111z"
	/>
<path fill="none" d="M6.137,27.688c-0.831,3-1.45,5-1.84,7h7.391v3H3.941c-0.079,1-0.131,2-0.131,3h7.877v3H3.941
	c0.812,11,5.746,19.558,12.746,25.831V27.688H6.137z"/>
<rect x="42.688" y="27.688" fill="none" width="11" height="13"/>
<path fill="none" d="M69.688,40.688h9.123c0-1-0.052-2-0.131-3h-8.992v-3h8.637c-0.391-2-1.01-4-1.84-7H64.688v42.356
	c8-6.287,13.158-15.356,13.992-26.356h-8.992V40.688z"/>
<rect x="24.688" y="34.688" fill="#FFFFFF" width="9" height="3"/>
<rect x="24.688" y="40.688" fill="#FFFFFF" width="9" height="3"/>
<path fill="#FFFFFF" d="M11.688,34.688H4.296c-0.159,1-0.274,2-0.355,3h7.746V34.688z"/>
<path fill="#FFFFFF" d="M11.688,40.688H3.811c0,1,0.052,2,0.131,3h7.746V40.688z"/>
<path fill="#FFFFFF" d="M69.688,37.688h8.992c-0.08-1-0.195-2-0.355-3h-8.637V37.688z"/>
<path fill="#BD8F2D" d="M41.311,0.5c-22.332,0-40.5,18.169-40.5,40.5s18.168,40.5,40.5,40.5c22.332,0,40.5-18.169,40.5-40.5
	S63.643,0.5,41.311,0.5z M3.785,44c-0.079-0.991-0.053-1.989-0.053-3s0.091-2.009,0.17-3c0.081-1.012,0.215-2.169,0.375-3.156
	c0.391-2.418,1.029-4.156,1.86-7.156h10.551v41.831C9.688,63.245,4.597,54.191,3.785,44z M19.688,71.832V61.688h2v-6h-2v-28h20
	v50.779C32.688,78.21,25.688,75.798,19.688,71.832z M53.688,40.688h-11v-13h11V40.688z M53.688,76.285c-3,1.249-7,2.001-11,2.172
	v-34.77h11V76.285z M61.688,72.256c-1,1.053-3,1.985-5,2.791V61.688h2v-8h-2V23.889l5,3.515V72.256z M53.688,18.111v6.576H7.404
	c6.015-12,18.95-21.5,33.907-21.5s27.892,9.5,33.906,21.5h-11.42L53.688,18.111z M78.68,43.688
	c-0.834,11-5.992,20.069-13.992,26.356V27.688h11.797c0.83,3,1.449,4.738,1.84,7.156c0.16,0.987,0.275,1.91,0.355,2.922
	c0.079,0.991,0.131,1.922,0.131,2.922h-0.123v3H78.68z"/>
</svg>
