<?xml version="1.0" encoding="utf-8"?>
<!-- Generator: Adobe Illustrator 16.0.4, SVG Export Plug-In . SVG Version: 6.00 Build 0)  -->
<!DOCTYPE svg PUBLIC "-//W3C//DTD SVG 1.1//EN" "http://www.w3.org/Graphics/SVG/1.1/DTD/svg11.dtd">
<svg version="1.1" id="Layer_1" xmlns="http://www.w3.org/2000/svg" xmlns:xlink="http://www.w3.org/1999/xlink" x="0px" y="0px"
	 width="50px" height="50px" viewBox="0 0 50 50" enable-background="new 0 0 50 50" xml:space="preserve">
<path fill="none" stroke="#FFFFFF" stroke-width="2" stroke-linecap="round" stroke-miterlimit="10" d="M73.392,1.506
	c-5.382,4.295-8.839,10.899-8.839,18.32c0,7.36,3.398,13.922,8.707,18.22"/>
<path fill="none" stroke="#FFFFFF" stroke-width="2" stroke-linecap="round" stroke-miterlimit="10" d="M102.78,38.019
	c5.285-4.3,8.666-10.849,8.666-18.193c0-7.402-3.438-13.992-8.797-18.289"/>
<path fill="none" stroke="#FFFFFF" stroke-width="2" stroke-linecap="round" stroke-miterlimit="10" d="M80.863,7.531
	c-4.234,2.464-7.091,7.041-7.091,12.294c0,5.193,2.791,9.721,6.946,12.207"/>
<path fill="none" stroke="#FFFFFF" stroke-width="2" stroke-linecap="round" stroke-miterlimit="10" d="M95.405,31.956
	c4.087-2.499,6.822-6.989,6.822-12.13c0-5.201-2.801-9.737-6.966-12.218"/>
<path fill="none" stroke="#BF902C" stroke-width="3" stroke-miterlimit="10" d="M88,19.826"/>
<path fill="#231F20" d="M82.024,43h12.459L90,36.941V25.149c2-0.882,3.57-2.933,3.57-5.324c0-3.195-2.564-5.785-5.76-5.785
	c-3.193,0-5.723,2.59-5.723,5.785c0,2.512,1.912,4.63,3.912,5.428v12.367L82.024,43z"/>
<rect x="1.312" y="7.308" fill="none" stroke="#231F20" stroke-width="2" stroke-miterlimit="10" width="47.375" height="35.425"/>
<line fill="none" stroke="#231F20" stroke-width="2" stroke-miterlimit="10" x1="17" y1="8" x2="17" y2="43"/>
<line fill="none" stroke="#231F20" stroke-width="2" stroke-miterlimit="10" x1="32" y1="8" x2="32" y2="42"/>
<polyline fill="none" stroke="#FFFFFF" stroke-width="2" stroke-miterlimit="10" points="5,19 9.208,19 14,19 "/>
<polyline fill="none" stroke="#FFFFFF" stroke-width="2" stroke-miterlimit="10" points="5,15 9.208,15 14,15 "/>
<polyline fill="none" stroke="#FFFFFF" stroke-width="2" stroke-miterlimit="10" points="36,19 40.791,19 45,19 "/>
<polyline fill="none" stroke="#FFFFFF" stroke-width="2" stroke-miterlimit="10" points="36,15 40.791,15 45,15 "/>
<polyline fill="none" stroke="#FFFFFF" stroke-width="2" stroke-miterlimit="10" points="21,19 25,19 29,19 "/>
<polyline fill="none" stroke="#FFFFFF" stroke-width="2" stroke-miterlimit="10" points="21,15 25,15 29,15 "/>
<line fill="none" stroke="#231F20" stroke-width="2" stroke-miterlimit="10" x1="16" y1="23" x2="16" y2="29"/>
<line fill="none" stroke="#231F20" stroke-width="2" stroke-miterlimit="10" x1="31" y1="23" x2="31" y2="29"/>
<line fill="none" stroke="#231F20" stroke-width="2" stroke-miterlimit="10" x1="47" y1="23" x2="47" y2="29"/>
</svg>
