<?xml version="1.0" encoding="utf-8"?>
<!-- Generator: Adobe Illustrator 16.0.4, SVG Export Plug-In . SVG Version: 6.00 Build 0)  -->
<!DOCTYPE svg PUBLIC "-//W3C//DTD SVG 1.1//EN" "http://www.w3.org/Graphics/SVG/1.1/DTD/svg11.dtd">
<svg version="1.1" id="Layer_1" xmlns="http://www.w3.org/2000/svg" xmlns:xlink="http://www.w3.org/1999/xlink" x="0px" y="0px"
	 width="27.333px" height="22px" viewBox="378.417 442.834 27.333 22" enable-background="new 378.417 442.834 27.333 22"
	 xml:space="preserve">
<g id="Layer_2">
</g>
<g id="Layer_1_1_">
	<path fill="none" d="M339.53,453.049c0-2.24-1.283-4.182-3.15-5.141L333.834,450l-2.64-2.128c-1.907,0.945-3.226,2.907-3.226,5.177
		c0,2.239,1.282,4.183,3.149,5.142l1.631-1.315v-1.238c-1.066-0.38-1.835-1.39-1.835-2.587c0-1.521,1.234-2.757,2.757-2.757
		c1.523,0,2.756,1.234,2.756,2.757c0,1.141-0.69,2.117-1.678,2.537v1.167l1.705,1.4C338.282,457.182,339.53,455.259,339.53,453.049z
		"/>
	<path fill="none" d="M343.924,453.049c0-3.283-1.568-6.199-3.99-8.061l-1.907,1.566c2.108,1.395,3.505,3.782,3.505,6.493
		c0,2.684-1.365,5.052-3.438,6.451l1.902,1.562C342.382,459.199,343.924,456.304,343.924,453.049z"/>
	<path fill="none" d="M325.97,453.049c0-2.731,1.419-5.136,3.556-6.522l-1.931-1.559c-2.437,1.86-4.019,4.786-4.019,8.081
		c0,3.269,1.554,6.172,3.955,8.034l1.925-1.553C327.357,458.136,325.97,455.752,325.97,453.049z"/>
	<path fill="#FFFFFF" d="M323.576,453.049c0-3.295,1.582-6.221,4.019-8.081l-1.603-1.292c-2.695,2.235-4.416,5.606-4.416,9.373
		c0,3.739,1.697,7.087,4.357,9.321l1.598-1.287C325.13,459.221,323.576,456.316,323.576,453.049z"/>
	<path fill="#FFFFFF" d="M343.924,453.049c0,3.255-1.542,6.15-3.928,8.015l1.58,1.298c2.654-2.234,4.348-5.577,4.348-9.312
		c0-3.761-1.716-7.128-4.405-9.363l-1.585,1.304C342.354,446.85,343.924,449.766,343.924,453.049z"/>
	<path fill="#FFFFFF" d="M341.53,453.049c0-2.711-1.396-5.1-3.505-6.493l-1.646,1.354c1.867,0.959,3.15,2.899,3.15,5.141
		c0,2.21-1.248,4.133-3.075,5.104l1.639,1.347C340.165,458.101,341.53,455.731,341.53,453.049z"/>
	<path fill="#FFFFFF" d="M327.97,453.049c0-2.27,1.317-4.23,3.226-5.177l-1.67-1.347c-2.137,1.388-3.556,3.791-3.556,6.522
		c0,2.703,1.389,5.087,3.486,6.481l1.663-1.341C329.252,457.23,327.97,455.288,327.97,453.049z"/>
	<path fill="#231F20" d="M332.75,461.53l-1.848,2.47h5.938l-2.09-2.794v-4.453v-1.167c0.986-0.42,1.678-1.396,1.678-2.537
		c0-1.521-1.232-2.757-2.756-2.757c-1.522,0-2.757,1.234-2.757,2.757c0,1.197,0.769,2.207,1.835,2.587v1.238V461.53z"/>
	<g>
		<path fill="none" stroke="#231F20" stroke-width="2" stroke-miterlimit="10" d="M279.796,453.954"/>
	</g>
	<g>
		<path fill="none" stroke="#231F20" stroke-width="2" stroke-miterlimit="10" d="M260.75,454"/>
	</g>
	<g>
		<path fill="#231F20" d="M278.337,448h-2c0-1-1.094-2.438-2.438-2.438c-1.345,0-2.149,1.438-2.149,2.438h-2.287
			c0-2,1.99-4.438,4.438-4.438C276.347,443.562,278.337,446,278.337,448z"/>
	</g>
	<g>
		<path fill="none" stroke="#231F20" stroke-width="2" stroke-miterlimit="10" d="M272.899,449.484"/>
	</g>
	<g>
		<path fill="#9E7929" d="M280.75,453"/>
	</g>
	<g>
		<polygon fill="none" points="282.334,448 281.75,448 281.75,449.029 		"/>
		<rect x="262.75" y="456" fill="none" width="16" height="6"/>
		<polygon fill="none" points="266.229,450 263.009,454 278.75,454 278.895,453.461 280.98,450 		"/>
		<polygon fill="none" points="280.75,454.271 280.75,462 284.75,462 284.75,454.274 282.772,450.938 		"/>
	</g>
	<path fill="#231F20" d="M283.75,448L283.75,448h-0.333h-1.083h-0.584h-17l-4,5v1l0,0v10h20h6v-10L283.75,448z M281.75,449h0.017
		l-0.017,0.029V449z M278.75,462h-16v-6h16V462z M278.75,454h-16l3-4h15L278.75,454z M284.75,462h-4v-8l2.022-4l1.978,4V462z"/>
	<g>
		<rect x="381.75" y="450" fill="#FFFFFF" width="4" height="1"/>
	</g>
	<g>
		<rect x="381.75" y="448" fill="#FFFFFF" width="4" height="1"/>
	</g>
	<g>
		<rect x="397.75" y="450" fill="#FFFFFF" width="4" height="1"/>
	</g>
	<g>
		<rect x="397.75" y="448" fill="#FFFFFF" width="4" height="1"/>
	</g>
	<g>
		<rect x="389.75" y="450" fill="#FFFFFF" width="4" height="1"/>
	</g>
	<g>
		<rect x="389.75" y="448" fill="#FFFFFF" width="4" height="1"/>
	</g>
	<path fill="#231F20" d="M378.75,444v20h26v-20H378.75z M380.75,446h6v7h-1v3h1v6h-6V446z M388.75,462v-16h6v7h-1v3h1v6H388.75z
		 M396.75,462v-16h6v7h-1v3h1v6H396.75z"/>
	<line fill="none" stroke="#231F20" stroke-width="2" stroke-miterlimit="10" x1="403.75" y1="454" x2="403.75" y2="457"/>
	<g>
		<rect x="269.75" y="452.129" fill="#FFFFFF" width="2" height="5.871"/>
	</g>
</g>
</svg>
