<?xml version="1.0" encoding="utf-8"?>
<!-- Generator: Adobe Illustrator 16.0.4, SVG Export Plug-In . SVG Version: 6.00 Build 0)  -->
<!DOCTYPE svg PUBLIC "-//W3C//DTD SVG 1.1//EN" "http://www.w3.org/Graphics/SVG/1.1/DTD/svg11.dtd">
<svg version="1.1" id="Layer_1" xmlns="http://www.w3.org/2000/svg" xmlns:xlink="http://www.w3.org/1999/xlink" x="0px" y="0px"
	 width="50px" height="50px" viewBox="0 0 50 50" enable-background="new 0 0 50 50" xml:space="preserve">
<path fill="none" stroke="#FFFFFF" stroke-width="2" stroke-linecap="round" stroke-miterlimit="10" d="M130.392-0.494
	c-5.382,4.295-8.839,10.899-8.839,18.32c0,7.36,3.398,13.922,8.707,18.22"/>
<path fill="none" stroke="#FFFFFF" stroke-width="2" stroke-linecap="round" stroke-miterlimit="10" d="M159.78,36.019
	c5.285-4.3,8.666-10.849,8.666-18.193c0-7.402-3.438-13.992-8.797-18.289"/>
<path fill="none" stroke="#FFFFFF" stroke-width="2" stroke-linecap="round" stroke-miterlimit="10" d="M137.863,5.531
	c-4.234,2.464-7.091,7.041-7.091,12.294c0,5.193,2.791,9.721,6.946,12.207"/>
<path fill="none" stroke="#FFFFFF" stroke-width="2" stroke-linecap="round" stroke-miterlimit="10" d="M152.405,29.956
	c4.087-2.499,6.822-6.989,6.822-12.13c0-5.201-2.801-9.737-6.966-12.218"/>
<path fill="none" stroke="#BF902C" stroke-width="3" stroke-miterlimit="10" d="M145,17.826"/>
<path fill="#231F20" d="M139.024,41h12.459L147,34.941V23.149c2-0.882,3.57-2.933,3.57-5.324c0-3.195-2.564-5.785-5.76-5.785
	c-3.193,0-5.723,2.59-5.723,5.785c0,2.512,1.912,4.63,3.912,5.428v12.367L139.024,41z"/>
<rect x="58.312" y="5.308" fill="none" stroke="#231F20" stroke-width="2" stroke-miterlimit="10" width="47.375" height="35.425"/>
<line fill="none" stroke="#231F20" stroke-width="2" stroke-miterlimit="10" x1="74" y1="6" x2="74" y2="41"/>
<line fill="none" stroke="#231F20" stroke-width="2" stroke-miterlimit="10" x1="89" y1="6" x2="89" y2="40"/>
<polyline fill="none" stroke="#FFFFFF" stroke-width="2" stroke-miterlimit="10" points="62,17 66.208,17 71,17 "/>
<polyline fill="none" stroke="#FFFFFF" stroke-width="2" stroke-miterlimit="10" points="62,13 66.208,13 71,13 "/>
<polyline fill="none" stroke="#FFFFFF" stroke-width="2" stroke-miterlimit="10" points="93,17 97.791,17 102,17 "/>
<polyline fill="none" stroke="#FFFFFF" stroke-width="2" stroke-miterlimit="10" points="93,13 97.791,13 102,13 "/>
<polyline fill="none" stroke="#FFFFFF" stroke-width="2" stroke-miterlimit="10" points="78,17 82,17 86,17 "/>
<polyline fill="none" stroke="#FFFFFF" stroke-width="2" stroke-miterlimit="10" points="78,13 82,13 86,13 "/>
<line fill="none" stroke="#231F20" stroke-width="2" stroke-miterlimit="10" x1="73" y1="21" x2="73" y2="27"/>
<line fill="none" stroke="#231F20" stroke-width="2" stroke-miterlimit="10" x1="88" y1="21" x2="88" y2="27"/>
<line fill="none" stroke="#231F20" stroke-width="2" stroke-miterlimit="10" x1="104" y1="21" x2="104" y2="27"/>
<rect x="2" y="26" fill="none" stroke="#231F20" stroke-width="2" stroke-miterlimit="10" width="34" height="15"/>
<path fill="none" stroke="#231F20" stroke-width="2" stroke-miterlimit="10" d="M36.468,24.376"/>
<polyline fill="none" stroke="#231F20" stroke-width="2" stroke-miterlimit="10" points="39.822,15.21 10.265,15.21 2.803,24.461 
	"/>
<path fill="none" stroke="#231F20" stroke-width="2" stroke-miterlimit="10" d="M0.938,24.461"/>
<path fill="none" stroke="#231F20" stroke-width="2" stroke-miterlimit="10" d="M19.057,14.099c0-3.54,2.872-6.411,6.411-6.411
	c3.542,0,6.413,2.871,6.413,6.411"/>
<path fill="none" stroke="#231F20" stroke-width="2" stroke-miterlimit="10" d="M23.603,16.037"/>
<rect x="17.728" y="20.971" fill="#FFFFFF" width="3.731" height="10.953"/>
<polyline fill="none" stroke="#231F20" stroke-width="2" stroke-miterlimit="10" points="38,41 48,41 48,24.461 42.25,15.134 
	36.365,24.335 "/>
<path fill="#9E7929" d="M38.248,22.596"/>
</svg>
